<svg xmlns="http://www.w3.org/2000/svg" viewBox="0 0 279.42 222.67"><defs><style>.cls-1{isolation:isolate;}.cls-2{fill:#d9d9d9;}.cls-3{fill:#c6c6c5;}.cls-4{fill:#b31f1c;}.cls-5{fill:#fff;}.cls-6{fill:none;stroke:#d9d9d9;stroke-miterlimit:10;stroke-width:0.69px;mix-blend-mode:multiply;}.cls-7{fill:#352e35;}.cls-8{fill:#911b13;}</style></defs><title>Accodian</title><g class="cls-1"><g id="Layer_1" data-name="Layer 1"><path class="cls-2" d="M200.49,265.85a63.51,63.51,0,0,0-9.1,2.06q-46.9-36.42-94.18-71.71-1.21-9.8-1.82-19.61Q148.22,220.51,200.49,265.85Z" transform="translate(-64.58 -85.94)"/><path class="cls-3" d="M200.43,266c-1-4-2-8.08-2.73-12.18q-44.44-42.49-89.38-84a117.21,117.21,0,0,0-13,7.05Q148.14,220.72,200.43,266Z" transform="translate(-64.58 -85.94)"/><path class="cls-2" d="M207.31,253.53a73.46,73.46,0,0,0-9.61.27q-44.44-42.49-89.38-84-.18-9.34.26-18.62Q158.3,201.76,207.31,253.53Z" transform="translate(-64.58 -85.94)"/><path class="cls-3" d="M207.23,253.65q-1-5.91-1.5-11.89Q164.51,194,122.65,147.17a122.2,122.2,0,0,0-14.21,4.25Q158.2,201.93,207.23,253.65Z" transform="translate(-64.58 -85.94)"/><path class="cls-2" d="M215.67,243.2a85.61,85.61,0,0,0-9.94-1.44Q164.51,194,122.65,147.17q.82-8.79,2.29-17.44Q170.75,186,215.67,243.2Z" transform="translate(-64.58 -85.94)"/><path class="cls-3" d="M215.58,243.29c-.23-3.81-.32-7.63-.26-11.44Q178,179.77,139.9,128.39a137.47,137.47,0,0,0-15.13,1.53Q170.61,186.11,215.58,243.29Z" transform="translate(-64.58 -85.94)"/><path class="cls-2" d="M225.42,234.91a102.89,102.89,0,0,0-10.1-3.06Q178,179.77,139.9,128.39q1.82-8.13,4.27-16Q185.32,173.23,225.42,234.91Z" transform="translate(-64.58 -85.94)"/><path class="cls-3" d="M225.31,235c.18-3.63.5-7.25,1-10.85q-32.85-55.51-66.53-110.51a157.67,157.67,0,0,0-15.8-1.13Q185.16,173.35,225.31,235Z" transform="translate(-64.58 -85.94)"/><path class="cls-2" d="M236.39,228.73q-4.95-2.52-10.09-4.6-32.85-55.51-66.53-110.51,2.76-7.38,6.19-14.46Q201.75,163.66,236.39,228.73Z" transform="translate(-64.58 -85.94)"/><path class="cls-3" d="M236.28,228.78q.87-5.11,2.22-10.1Q210.69,160.65,182,103q-8-2.2-16.22-3.7Q201.58,163.74,236.28,228.78Z" transform="translate(-64.58 -85.94)"/><path class="cls-2" d="M248.44,224.71c-3.23-2.14-6.54-4.16-9.94-6Q210.69,160.65,182,103a145.18,145.18,0,0,1,8-12.65Q219.84,157.34,248.44,224.71Z" transform="translate(-64.58 -85.94)"/><path class="cls-3" d="M248.32,224.74a87.47,87.47,0,0,1,3.45-9.19q-22.31-59.58-45.61-119-8.1-3.44-16.42-6.21Q219.67,157.39,248.32,224.74Z" transform="translate(-64.58 -85.94)"/><path class="cls-2" d="M261.41,222.92c-3.12-2.57-6.33-5-9.64-7.37q-22.31-59.58-45.61-119A127.83,127.83,0,0,1,216,85.94Q239.36,154.37,261.41,222.92Z" transform="translate(-64.58 -85.94)"/><path class="cls-3" d="M261.28,222.92a76.64,76.64,0,0,1,4.64-8.12Q249.54,154.7,232.09,94.58,224,90,215.69,86,239.17,154.38,261.28,222.92Z" transform="translate(-64.58 -85.94)"/><path class="cls-2" d="M275.14,223.4q-4.44-4.44-9.22-8.6Q249.54,154.7,232.09,94.58a117,117,0,0,1,11.47-8.41Q260.06,154.84,275.14,223.4Z" transform="translate(-64.58 -85.94)"/><path class="cls-3" d="M275,223.38a66.49,66.49,0,0,1,5.81-6.88Q270.7,156.89,259.45,97.09q-7.92-5.75-16.17-10.94Q259.86,154.82,275,223.38Z" transform="translate(-64.58 -85.94)"/><path class="cls-2" d="M289.48,226.22q-4.14-5-8.67-9.72Q270.7,156.89,259.45,97.09a117.45,117.45,0,0,1,13-6Q281.73,158.86,289.48,226.22Z" transform="translate(-64.58 -85.94)"/><path class="cls-3" d="M289.33,226.18a61.56,61.56,0,0,1,6.95-5.47q-3.58-58.05-8.34-116.47-7.68-6.83-15.74-13.18Q281.52,158.8,289.33,226.18Z" transform="translate(-64.58 -85.94)"/><path class="cls-4" d="M172.55,304.54c-3.86,4.86-5.37,5.17-9.41,2L67.65,230.57c-4-3.21-4.08-4.75-.22-9.61l23-28.92c3.86-4.86,5.36-5.17,9.4-2L195.34,266c4,3.21,4.07,4.75.21,9.61Z" transform="translate(-64.58 -85.94)"/><path class="cls-5" d="M166.14,306.87l15.89-20c3.14-3.95,3-5.28-.8-8.32l-90.18-71.7c-3.82-3-5.14-2.86-8.29,1.09l-15.88,20Z" transform="translate(-64.58 -85.94)"/><line class="cls-6" x1="28.65" y1="122.66" x2="8.04" y2="148.58"/><line class="cls-6" x1="34.38" y1="127.22" x2="13.77" y2="153.13"/><line class="cls-6" x1="40.11" y1="131.77" x2="19.5" y2="157.69"/><line class="cls-6" x1="45.84" y1="136.33" x2="25.23" y2="162.25"/><line class="cls-6" x1="51.57" y1="140.88" x2="30.96" y2="166.8"/><line class="cls-6" x1="57.3" y1="145.44" x2="36.69" y2="171.36"/><line class="cls-6" x1="63.03" y1="149.99" x2="42.42" y2="175.91"/><line class="cls-6" x1="68.75" y1="154.55" x2="48.14" y2="180.47"/><line class="cls-6" x1="74.49" y1="159.1" x2="53.87" y2="185.02"/><line class="cls-6" x1="80.21" y1="163.66" x2="59.6" y2="189.58"/><line class="cls-6" x1="85.94" y1="168.22" x2="65.33" y2="194.14"/><line class="cls-6" x1="91.67" y1="172.77" x2="71.06" y2="198.69"/><line class="cls-6" x1="97.4" y1="177.33" x2="76.79" y2="203.25"/><line class="cls-6" x1="103.13" y1="181.88" x2="82.52" y2="207.8"/><line class="cls-6" x1="108.86" y1="186.44" x2="88.25" y2="212.36"/><line class="cls-6" x1="114.59" y1="190.99" x2="93.98" y2="216.91"/><rect class="cls-7" x="74.39" y="215.87" width="23.23" height="3.66" transform="translate(-202.51 63.64) rotate(-51.53)"/><rect class="cls-7" x="80.11" y="220.42" width="23.23" height="3.66" transform="matrix(0.62, -0.78, 0.78, 0.62, -203.94, 69.91)"/><rect class="cls-7" x="91.57" y="229.53" width="23.23" height="3.66" transform="translate(-206.75 82.36) rotate(-51.55)"/><rect class="cls-7" x="97.3" y="234.09" width="23.23" height="3.66" transform="translate(-208.08 88.29) rotate(-51.49)"/><rect class="cls-7" x="103.03" y="238.64" width="23.23" height="3.66" transform="translate(-209.51 94.59) rotate(-51.51)"/><rect class="cls-7" x="131.68" y="261.42" width="23.23" height="3.66" transform="translate(-216.52 125.64) rotate(-51.51)"/><rect class="cls-7" x="137.41" y="265.98" width="23.23" height="3.66" transform="translate(-217.93 131.86) rotate(-51.52)"/><rect class="cls-7" x="143.14" y="270.53" width="23.23" height="3.66" transform="translate(-219.33 138.1) rotate(-51.52)"/><rect class="cls-7" x="114.49" y="247.75" width="23.23" height="3.66" transform="translate(-212.31 107) rotate(-51.51)"/><rect class="cls-7" x="120.22" y="252.31" width="23.23" height="3.66" transform="translate(-213.71 113.21) rotate(-51.51)"/><rect class="cls-7" x="154.59" y="279.64" width="23.23" height="3.66" transform="translate(-222.12 150.38) rotate(-51.5)"/><rect class="cls-7" x="160.32" y="284.2" width="23.23" height="3.66" transform="translate(-223.52 156.57) rotate(-51.5)"/><path class="cls-8" d="M324.43,91.93c6.17-.59,7.45.28,7.93,5.42L343.9,218.81c.49,5.13-.6,6.22-6.77,6.81l-36.8,3.49c-6.17.59-7.45-.28-7.93-5.41L280.87,102.24c-.49-5.14.59-6.23,6.77-6.81Z" transform="translate(-64.58 -85.94)"/><path class="cls-4" d="M325.36,96.41c5.75-.55,6.94.26,7.39,5L343.51,214.7c.45,4.79-.56,5.8-6.32,6.35l-34.3,3.26c-5.76.54-6.94-.27-7.4-5.06L284.74,106c-.46-4.79.56-5.81,6.31-6.35Z" transform="translate(-64.58 -85.94)"/><path class="cls-2" d="M306.44,198.17a4.77,4.77,0,1,1-4.3,5.2A4.77,4.77,0,0,1,306.44,198.17Z" transform="translate(-64.58 -85.94)"/><path class="cls-2" d="M323.45,187a4.78,4.78,0,1,1-4.3,5.21A4.78,4.78,0,0,1,323.45,187Z" transform="translate(-64.58 -85.94)"/><path class="cls-2" d="M303.85,170.92a4.78,4.78,0,1,1-4.3,5.21A4.78,4.78,0,0,1,303.85,170.92Z" transform="translate(-64.58 -85.94)"/><path class="cls-2" d="M320.86,159.72a4.77,4.77,0,1,1-4.3,5.2A4.77,4.77,0,0,1,320.86,159.72Z" transform="translate(-64.58 -85.94)"/><path class="cls-2" d="M301.26,143.68a4.77,4.77,0,1,1-4.3,5.2A4.78,4.78,0,0,1,301.26,143.68Z" transform="translate(-64.58 -85.94)"/><path class="cls-2" d="M318.28,132.47a4.77,4.77,0,1,1-4.31,5.2A4.78,4.78,0,0,1,318.28,132.47Z" transform="translate(-64.58 -85.94)"/><path class="cls-2" d="M298.68,116.43a4.77,4.77,0,1,1-4.31,5.2A4.78,4.78,0,0,1,298.68,116.43Z" transform="translate(-64.58 -85.94)"/><path class="cls-2" d="M315.69,105.23a4.77,4.77,0,1,1-4.3,5.2A4.76,4.76,0,0,1,315.69,105.23Z" transform="translate(-64.58 -85.94)"/></g></g></svg>