<?xml version="1.0" encoding="utf-8"?>
<!-- Generator: Adobe Illustrator 23.0.4, SVG Export Plug-In . SVG Version: 6.00 Build 0)  -->
<svg version="1.1" id="Layer_1" xmlns="http://www.w3.org/2000/svg" xmlns:xlink="http://www.w3.org/1999/xlink" x="0px" y="0px"
	 viewBox="0 0 400 400" style="enable-background:new 0 0 400 400;" xml:space="preserve">
<style type="text/css">
	.st0{fill:#E37D00;}
	.st1{fill:#FFBF70;}
</style>
<g>
	<g>
		<path class="st0" d="M222.98,279.32l-28.43,31.83c-15.77,17.65-42.95,19.19-60.6,3.42c-17.65-15.77-19.19-42.95-3.42-60.6
			L281.72,84.71l13.27,11.85L143.8,265.83c-9.23,10.34-8.33,26.25,2,35.48c10.33,9.23,26.25,8.33,35.48-2l28.43-31.83L222.98,279.32
			z"/>
	</g>
	<polygon class="st1" points="149.07,197.26 133.13,215.1 144.27,216.17 233.61,295.97 240.72,288 151.32,208.15 	"/>
	<polygon class="st1" points="173.27,170.16 157.34,188 168.47,189.07 257.81,268.87 264.93,260.91 175.52,181.05 	"/>
	<polygon class="st1" points="197.48,143.06 181.55,160.9 192.68,161.97 282.02,241.77 289.13,233.81 199.73,153.95 	"/>
	<g>
		<path class="st1" d="M261.1,32.87l-8.75,84.72l6.52,5.82l55.43-62.06C287.69,37.63,261.1,32.87,261.1,32.87z"/>
		<path class="st0" d="M258.87,123.42l6.75,6.03l82.98-18.42c0,0-8.29-26.45-34.17-49.57c-0.04-0.04-0.08-0.06-0.12-0.1
			L258.87,123.42z"/>
	</g>
	<g>
		<path class="st1" d="M103.61,332.73l-18.36,3.8c0,0,2.83,9.04,11.68,16.95c0.02,0.01,0.03,0.02,0.04,0.03l13.27-14.85
			L103.61,332.73z"/>
		<path class="st0" d="M266.05,150.88L103.61,332.73l6.63,5.93l-13.27,14.85c9.1,8.11,18.19,9.74,18.19,9.74l1.79-18.6l-0.08-0.07
			l162.44-181.86c5.44-6.09,10.25-3.43,12.63-1.3c1.9,1.7,6.95,6.21-5.64,20.31l-24.72,27.67l13.27,11.85l24.72-27.67
			c22.07-24.71,10.31-40,4.23-45.43C292.23,137.83,276.71,138.94,266.05,150.88z"/>
	</g>
</g>
</svg>
