<?xml version="1.0" encoding="utf-8"?>
<!-- Generator: Adobe Illustrator 23.0.4, SVG Export Plug-In . SVG Version: 6.00 Build 0)  -->
<svg version="1.1" id="Layer_1" xmlns="http://www.w3.org/2000/svg" xmlns:xlink="http://www.w3.org/1999/xlink" x="0px" y="0px"
	 viewBox="0 0 400 400" style="enable-background:new 0 0 400 400;" xml:space="preserve">
<style type="text/css">
	.st0{display:none;fill:#D3DAE8;}
	.st1{fill:#FFFFFF;}
	.st2{fill:#09306E;}
	.st3{fill:#A6A6A6;}
	.st4{fill:#511B50;}
	.st5{fill:#744973;}
	.st6{fill:#E37D00;}
	.st7{fill:#3A598B;}
</style>
<g>
	<rect x="156" y="157" class="st0" width="112.5" height="112.5"/>
	<g>
		<g>
			<rect x="47.44" y="323.29" class="st1" width="159.56" height="12.61"/>
			<rect x="207" y="323.29" class="st2" width="159.56" height="12.61"/>
			<rect x="207" y="177.37" class="st2" width="159.56" height="11.76"/>
			<rect x="47.44" y="177.37" class="st1" width="159.56" height="11.76"/>
			<rect x="47.44" y="311.05" class="st3" width="159.56" height="12.24"/>
			<rect x="47.44" y="189.13" class="st3" width="159.56" height="12.81"/>
			<rect x="207" y="189.13" width="159.56" height="12.81"/>
			<rect x="207" y="311.05" width="159.56" height="12.24"/>
			<rect x="207" y="201.94" class="st4" width="159.56" height="109.11"/>
			<rect x="47.44" y="201.94" class="st5" width="159.56" height="109.11"/>
		</g>
		<g>
			<g>
				<path d="M207,235.51c6.32,0,11.44-5.12,11.44-11.44c0-6.31-5.12-11.43-11.44-11.43c-6.32,0-11.44,5.12-11.44,11.43
					C195.56,230.4,200.68,235.51,207,235.51z"/>
			</g>
			<g>
				<path d="M207,300.05c6.32,0,11.44-5.12,11.44-11.44c0-6.32-5.12-11.44-11.44-11.44c-6.32,0-11.44,5.12-11.44,11.44
					C195.56,294.93,200.68,300.05,207,300.05z"/>
			</g>
			<g>
				<path d="M320.22,235.82c6.32,0,11.44-5.12,11.44-11.45c0-6.32-5.12-11.44-11.44-11.44s-11.44,5.12-11.44,11.44
					C308.78,230.7,313.91,235.82,320.22,235.82z"/>
			</g>
			<g>
				<path d="M320.2,300.34c6.32,0,11.45-5.12,11.45-11.44c0-6.32-5.12-11.44-11.45-11.44c-6.32,0-11.43,5.12-11.43,11.44
					C308.77,295.23,313.89,300.34,320.2,300.34z"/>
			</g>
			<g>
				<path class="st3" d="M96.13,235.38c6.32,0,11.43-5.12,11.43-11.44c0-6.31-5.12-11.43-11.43-11.43s-11.45,5.12-11.45,11.43
					C84.69,230.27,89.82,235.38,96.13,235.38z"/>
			</g>
			<g>
				<path class="st3" d="M96.13,299.91c6.32,0,11.43-5.12,11.43-11.44c0-6.32-5.12-11.43-11.43-11.43s-11.45,5.12-11.45,11.43
					C84.69,294.8,89.82,299.91,96.13,299.91z"/>
			</g>
			<g>
				<path class="st3" d="M47.44,299.91v-22.87c-6.32,0-11.44,5.12-11.44,11.43C36,294.8,41.12,299.91,47.44,299.91z"/>
			</g>
			<g>
				<path class="st3" d="M47.44,235.38v-22.87c-6.32,0-11.44,5.12-11.44,11.43C36,230.27,41.12,235.38,47.44,235.38z"/>
			</g>
			<g>
				<path d="M366.55,212.51v22.88c6.32,0,11.45-5.12,11.45-11.43C378,217.64,372.88,212.51,366.55,212.51z"/>
			</g>
			<g>
				<path d="M366.55,277.04v22.87c6.32,0,11.45-5.12,11.45-11.44C378,282.16,372.88,277.04,366.55,277.04z"/>
			</g>
		</g>
		<g>
			<g>
				<path class="st6" d="M54.95,151.53l289.23-62.11c0.44-3.36,2.89-6.26,6.39-7.08c4.52-1.06,9.03,1.73,10.09,6.25
					c1.06,4.52-1.74,9.04-6.26,10.1c-3.28,0.76-6.54-0.52-8.5-3L58.83,168.09L54.95,151.53z"/>
			</g>
		</g>
		<g>
			<g>
				<path class="st7" d="M359.96,151.53L70.74,89.42c-0.46-3.36-2.89-6.26-6.39-7.08c-4.51-1.06-9.04,1.73-10.09,6.25
					c-1.06,4.52,1.75,9.04,6.26,10.1c3.27,0.76,6.54-0.52,8.5-3l287.07,72.39L359.96,151.53z"/>
			</g>
		</g>
	</g>
</g>
</svg>
