<?xml version="1.0" encoding="utf-8"?>
<!-- Generator: Adobe Illustrator 23.0.4, SVG Export Plug-In . SVG Version: 6.00 Build 0)  -->
<svg version="1.1" id="Layer_1" xmlns="http://www.w3.org/2000/svg" xmlns:xlink="http://www.w3.org/1999/xlink" x="0px" y="0px"
	 viewBox="0 0 400 400" style="enable-background:new 0 0 400 400;" xml:space="preserve">
<style type="text/css">
	.st0{fill:#FFAD42;}
	.st1{fill:#FB8E21;}
	.st2{fill:#4F352D;}
	.st3{opacity:0.15;}
</style>
<g>
	
		<rect x="99.77" y="182.43" transform="matrix(0.7071 -0.7071 0.7071 0.7071 -78.0684 202.6304)" class="st0" width="211.58" height="26.24"/>
	
		<rect x="278.6" y="103.36" transform="matrix(0.7071 -0.7071 0.7071 0.7071 1.0035 235.383)" class="st1" width="12.07" height="26.24"/>
	<path class="st0" d="M279.62,102.94l18.55,18.55c0,0,16.88-17.83,36.31-13l-41.87-41.87C297.46,86.06,279.62,102.94,279.62,102.94z
		"/>
	<path class="st1" d="M84.51,309.15l22.89-17.77l6.41,1.27c6.88,1.37,13.99-0.79,18.95-5.75l7.28-7.28l-18.55-18.55L78.96,303.6
		L84.51,309.15z"/>
	<path class="st2" d="M147.65,241.08c0.79,0.79-0.89,3.74-3.74,6.59c-2.85,2.85-5.8,4.53-6.59,3.74s0.89-3.74,3.74-6.59
		C143.91,241.97,146.86,240.29,147.65,241.08z"/>
	<path class="st2" d="M170.4,218.32c0.79,0.79-0.89,3.74-3.74,6.59c-2.85,2.85-5.8,4.53-6.59,3.74c-0.79-0.79,0.89-3.74,3.74-6.59
		C166.67,219.21,169.62,217.54,170.4,218.32z"/>
	<path class="st2" d="M193.16,195.57c0.79,0.79-0.89,3.74-3.75,6.59c-2.85,2.85-5.8,4.53-6.59,3.74c-0.79-0.79,0.89-3.74,3.75-6.59
		C189.42,196.46,192.37,194.78,193.16,195.57z"/>
	<path class="st2" d="M215.91,172.81c0.79,0.79-0.89,3.74-3.74,6.59c-2.85,2.85-5.8,4.53-6.59,3.74s0.89-3.74,3.74-6.59
		C212.18,173.7,215.13,172.03,215.91,172.81z"/>
	<path class="st2" d="M238.67,150.06c0.79,0.79-0.89,3.74-3.74,6.59c-2.85,2.85-5.8,4.53-6.59,3.75c-0.79-0.79,0.89-3.74,3.74-6.59
		C234.93,150.95,237.88,149.27,238.67,150.06z"/>
	<path class="st2" d="M261.42,127.3c0.79,0.79-0.89,3.74-3.74,6.59c-2.85,2.85-5.8,4.53-6.59,3.74s0.89-3.74,3.74-6.59
		C257.68,128.19,260.63,126.52,261.42,127.3z"/>
	<path class="st3" d="M109.34,291.77l4.47,0.89c6.88,1.37,13.99-0.79,18.95-5.75l7.28-7.28l149.61-149.61l8.53-8.53l0,0
		c0,0,16.88-17.83,36.31-13l-20.93-20.93L109.34,291.77z"/>
</g>
</svg>
