<?xml version="1.0" encoding="utf-8"?>
<!-- Generator: Adobe Illustrator 23.0.4, SVG Export Plug-In . SVG Version: 6.00 Build 0)  -->
<svg version="1.1" id="Capa_1" xmlns="http://www.w3.org/2000/svg" xmlns:xlink="http://www.w3.org/1999/xlink" x="0px" y="0px"
	 viewBox="0 0 425.2 425.2" style="enable-background:new 0 0 425.2 425.2;" xml:space="preserve">
<style type="text/css">
	.st0{display:none;fill:#F39200;}
	.st1{display:none;fill:#C67900;}
	.st2{fill:#B41F1C;}
	.st3{fill:#E2E1E1;}
	.st4{fill:#DADADA;}
	.st5{fill:#FFFFFF;}
	.st6{fill:#9D9D9C;}
	.st7{fill:#999998;}
	.st8{fill:#C6C6C6;}
	.st9{fill:#B2B2B2;}
	.st10{fill:#6E2918;}
	.st11{fill:#7D4E24;}
	.st12{fill:#E5E5E5;}
	.st13{fill:#979696;}
	.st14{fill:#A1A1A1;}
</style>
<rect y="0" class="st0" width="425.2" height="425.2"/>
<ellipse class="st1" cx="218.48" cy="376.43" rx="151.48" ry="18.8"/>
<g>
	<path class="st2" d="M369.51,303.7c-4.83-25.68-32.55-46.08-56.13-52.71c-14.12-3.97-22.88-4.23-28.75-24.28
		c-3.95-13.49-9.21-24.84-12.89-29.14c-4.21-4.91-10.95-2.6-8.12,5.47c2.7,7.7,0.84,15.69-5.89,21c-6.61,5.22-18.46,1.32-26.95-6.33
		c-13.51-12.17-28.44-3.74-28.44-3.74s12.45,17.44-0.24,28.3c-14.31,12.25-28.5-1.29-40.51-16.24c-5.56-6.93-11.68-3.86-7.41,4.15
		c12.88,24.19,39.21,48.04,59.54,57.23c14.91,6.74,15.48,20.26,17.12,30.75c2.81,17.99,2.84,32.7,18.32,47.59
		C290,405.1,377.04,343.77,369.51,303.7z"/>
	<path class="st3" d="M352.21,284c-6.92-10.8-25.28-24.04-45.08-29.18c-10.87-2.82-18.81-5.46-23.76-20.67
		c-5.46-16.78-6.62-28.66-11.15-32.43c-3.81-3.17-8.08-1.54-5.65,4.96c2.19,5.85,1.12,16.91-3.67,21.4
		c-10.14,9.51-32.9,6.77-44.35,12.45c-8.53,4.23-8.75,20.88,4.67,30.67c10.83,7.9,15.37,9.33,21.68,19.95
		c10.45,17.6-0.46,24.36,14.71,36.66c9.34,7.58,23.78-2.25,37.27-13.15c7.06-5.71,19.2-16.05,28.87-20.09
		c6.06-2.53,13.33-0.85,19.3,0.91C352.21,297.57,355.82,289.63,352.21,284z"/>
	<path class="st4" d="M364.72,311.96c-4.2,6.4-8.8,13.12-15.24,17.49c-3.04,2.06-6.18,3.72-9.44,5.17
		c-0.83,0.52-1.69,1.03-2.58,1.52c-18.59,10.22-43.58,16.93-63.87,7.86c-11.57-5.18-22.48-12.63-30.2-22.83
		c-4-5.28-7.47-10.97-10.26-16.97c-2.79-5.98-4.99-11.95-9.48-16.93c-8.92-9.89-22.48-13.25-31.33-23.04
		c-6.21-6.86-12.36-14.16-15.72-22.76c-5.25-3.95-10.3-9.57-15.01-15.43c-5.56-6.93-11.68-3.86-7.41,4.15
		c12.88,24.19,39.21,48.04,59.54,57.23c14.91,6.74,15.48,20.26,17.12,30.75c2.81,17.99,2.84,32.7,18.32,47.59
		c40.52,39.01,126.43-20.97,120.52-61.05C367.98,307.15,366.29,309.56,364.72,311.96z"/>
	<path class="st5" d="M202.47,241.93c1.85,2.67,3.75,5.3,5.72,7.88c9.78,12.83,20.71,24.79,32.69,35.62
		c10.37,9.37,22.43,18.58,36.02,22.59c25.43,7.5,54.58-2.16,73.53-19.94c2.76-2.59,5.24-5.32,7.47-8.17
		c-11.39-14.05-28.86-24.52-44.51-28.92c-14.12-3.97-22.88-4.23-28.75-24.28c-3.95-13.49-9.21-24.84-12.89-29.14
		c-4.21-4.91-10.95-2.6-8.12,5.47c2.7,7.7,0.84,15.69-5.89,21c-6.61,5.22-18.46,1.32-26.95-6.33c-13.51-12.17-28.44-3.74-28.44-3.74
		S214.5,231.06,202.47,241.93z"/>
	<g>
		<path class="st6" d="M253.61,361.94c-15.47-14.9-15.5-29.6-18.31-47.59c-1.64-10.49-2.22-24.02-17.12-30.75
			c-20.33-9.19-46.66-33.03-59.54-57.22c-0.77-1.44-1.19-2.72-1.35-3.81c-3.76-1.49-6.25,1.72-3.11,7.63
			c12.88,24.19,39.21,48.04,59.54,57.23c14.91,6.74,15.48,20.26,17.12,30.75c2.81,17.99,2.84,32.7,18.32,47.59
			c25.68,24.72,69.59,9.68,96.81-14.85C318.6,373.11,277.93,385.35,253.61,361.94z"/>
		<path class="st6" d="M206.56,238.46c10.25-8.77,4.09-21.84,1.35-26.54c-3.42,0.84-5.58,2.06-5.58,2.06s11.06,15.52,1.68,26.39
			C204.86,239.82,205.71,239.19,206.56,238.46z"/>
	</g>
	<g>
		<path class="st7" d="M298.36,285.92c1.13,1.32,1.07,3.22-0.13,4.25l-21.42,18.33c-1.2,1.03-3.09,0.8-4.22-0.52l-5.28-6.17
			c-1.13-1.32-1.07-3.22,0.13-4.25l21.42-18.33c1.2-1.03,3.09-0.8,4.22,0.52L298.36,285.92z"/>
		<path class="st8" d="M297.42,285.55c1.03,1.2,0.91,2.98-0.26,3.98l-20.82,17.82c-1.17,1-2.95,0.84-3.97-0.36l-4.8-5.61
			c-1.03-1.2-0.91-2.98,0.26-3.98l20.82-17.82c1.17-1,2.95-0.84,3.98,0.36L297.42,285.55z"/>
		<g>
			<path class="st9" d="M277.81,302.7c0.24,0.27,0.22,0.67-0.03,0.89l0,0c-0.25,0.21-0.64,0.17-0.88-0.11l-5.17-6.04
				c-0.24-0.27-0.22-0.67,0.03-0.89l0,0c0.25-0.21,0.64-0.17,0.88,0.11L277.81,302.7z"/>
			<path class="st9" d="M280.9,300.06c0.24,0.28,0.22,0.67-0.03,0.89l0,0c-0.25,0.21-0.64,0.17-0.88-0.11l-5.17-6.04
				c-0.24-0.27-0.22-0.67,0.03-0.89l0,0c0.25-0.21,0.64-0.17,0.88,0.11L280.9,300.06z"/>
			<path class="st9" d="M283.99,297.42c0.24,0.27,0.22,0.67-0.03,0.89l0,0c-0.25,0.21-0.64,0.17-0.88-0.11l-5.17-6.04
				c-0.24-0.27-0.22-0.67,0.03-0.89l0,0c0.25-0.21,0.64-0.17,0.88,0.11L283.99,297.42z"/>
			<path class="st9" d="M287.07,294.78c0.24,0.28,0.22,0.67-0.03,0.89l0,0c-0.25,0.21-0.64,0.17-0.88-0.11l-5.17-6.04
				c-0.24-0.27-0.22-0.67,0.03-0.89l0,0c0.25-0.21,0.64-0.17,0.88,0.11L287.07,294.78z"/>
			<path class="st9" d="M290.16,292.14c0.24,0.27,0.22,0.67-0.03,0.89l0,0c-0.25,0.21-0.64,0.17-0.88-0.11l-5.17-6.04
				c-0.23-0.27-0.22-0.67,0.03-0.89l0,0c0.25-0.21,0.65-0.17,0.88,0.11L290.16,292.14z"/>
			<path class="st9" d="M293.24,289.5c0.24,0.28,0.22,0.67-0.03,0.89l0,0c-0.25,0.21-0.64,0.17-0.88-0.11l-5.17-6.04
				c-0.23-0.27-0.22-0.67,0.03-0.89l0,0c0.25-0.21,0.65-0.17,0.88,0.11L293.24,289.5z"/>
		</g>
	</g>
	<g>
		<path class="st7" d="M279.02,263.32c1.13,1.32,1.07,3.22-0.13,4.25l-21.42,18.33c-1.2,1.03-3.09,0.8-4.22-0.52l-5.28-6.17
			c-1.13-1.32-1.07-3.22,0.13-4.25l21.42-18.33c1.2-1.03,3.09-0.8,4.22,0.52L279.02,263.32z"/>
		<path class="st8" d="M278.07,262.95c1.03,1.2,0.91,2.98-0.26,3.98L257,284.75c-1.17,1-2.95,0.84-3.98-0.36l-4.8-5.61
			c-1.03-1.2-0.91-2.98,0.26-3.98l20.82-17.82c1.17-1,2.95-0.84,3.98,0.36L278.07,262.95z"/>
		<g>
			<path class="st9" d="M258.47,280.1c0.24,0.28,0.22,0.67-0.03,0.89l0,0c-0.25,0.21-0.64,0.17-0.88-0.11l-5.17-6.04
				c-0.24-0.27-0.22-0.67,0.03-0.89l0,0c0.25-0.21,0.65-0.17,0.88,0.11L258.47,280.1z"/>
			<path class="st9" d="M261.55,277.46c0.24,0.28,0.22,0.67-0.03,0.89l0,0c-0.25,0.21-0.64,0.17-0.88-0.11l-5.17-6.04
				c-0.23-0.27-0.22-0.67,0.03-0.89l0,0c0.25-0.21,0.64-0.17,0.88,0.11L261.55,277.46z"/>
			<path class="st9" d="M264.64,274.82c0.24,0.28,0.22,0.67-0.03,0.89l0,0c-0.25,0.21-0.64,0.17-0.88-0.11l-5.17-6.04
				c-0.23-0.27-0.22-0.67,0.03-0.88l0,0c0.25-0.21,0.65-0.17,0.88,0.11L264.64,274.82z"/>
			<path class="st9" d="M267.73,272.18c0.24,0.28,0.22,0.67-0.03,0.89l0,0c-0.25,0.21-0.64,0.17-0.88-0.11l-5.17-6.04
				c-0.23-0.27-0.22-0.67,0.03-0.89l0,0c0.25-0.21,0.64-0.17,0.88,0.11L267.73,272.18z"/>
			<path class="st9" d="M270.81,269.53c0.24,0.28,0.22,0.67-0.03,0.89l0,0c-0.25,0.21-0.64,0.17-0.88-0.11l-5.17-6.04
				c-0.23-0.27-0.22-0.67,0.03-0.88l0,0c0.25-0.21,0.64-0.17,0.88,0.11L270.81,269.53z"/>
			<path class="st9" d="M273.9,266.89c0.24,0.28,0.22,0.67-0.03,0.89l0,0c-0.25,0.21-0.65,0.17-0.88-0.11l-5.17-6.04
				c-0.24-0.27-0.22-0.67,0.03-0.89l0,0c0.25-0.21,0.64-0.17,0.88,0.11L273.9,266.89z"/>
		</g>
	</g>
	<polygon class="st10" points="256.06,246.77 239.95,260.56 94.33,85.07 105.44,75.55 	"/>
	<g>
		<path class="st8" d="M89.66,42.07c0.48,0.56,0.42,1.41-0.15,1.89l-7.93,6.78L80,48.57l7.77-6.65
			C88.33,41.44,89.18,41.51,89.66,42.07L89.66,42.07z"/>
		<path class="st9" d="M80.79,49.66l0.79,1.08l7.93-6.78c0.56-0.48,0.63-1.33,0.15-1.89c-0.03-0.04-0.08-0.05-0.11-0.09L80.79,49.66
			z"/>
		<path class="st8" d="M87.15,47.88c0.48,0.56,1.92,0.11,3.23-1l0,0c1.3-1.11,1.96-2.47,1.48-3.03l-3.62-4.23
			c-0.48-0.56-1.92-0.12-3.22,1l0,0c-1.3,1.11-1.96,2.47-1.49,3.03L87.15,47.88z"/>
		<path class="st9" d="M84.54,41.11c-0.96,1-1.42,2.06-1.01,2.55l3.62,4.23c0.41,0.48,1.54,0.19,2.67-0.6L84.54,41.11z"/>
	</g>
	<g>
		<path class="st8" d="M96.65,50.24c0.48,0.56,0.42,1.41-0.15,1.89l-7.93,6.78l-1.59-2.17l7.77-6.65
			C95.32,49.61,96.17,49.67,96.65,50.24L96.65,50.24z"/>
		<path class="st9" d="M87.78,57.82l0.79,1.08l7.93-6.78c0.56-0.48,0.63-1.33,0.15-1.89c-0.03-0.04-0.08-0.05-0.11-0.09L87.78,57.82
			z"/>
		<path class="st8" d="M94.14,56.05c0.48,0.56,1.92,0.11,3.23-1l0,0c1.3-1.11,1.96-2.47,1.48-3.03l-3.62-4.23
			c-0.48-0.56-1.92-0.11-3.22,1l0,0c-1.3,1.11-1.96,2.47-1.49,3.03L94.14,56.05z"/>
		<path class="st9" d="M91.53,49.27c-0.96,1-1.42,2.06-1.01,2.55l3.62,4.23c0.41,0.48,1.54,0.19,2.67-0.6L91.53,49.27z"/>
	</g>
	<path class="st11" d="M106.86,75.66c-3.7-4.59-6.53-16.04-6.53-16.04s-7.12,1.79-23.12-20.57c-1.86-2.34-4-3.01-5.99-1.31
		c-1.98,1.7-1.33,5.6-2.73,6.8c-5.52,2.62-2.25,9.03,0,11.31c14.24,14.52,10.65,22.7,10.65,22.7s11.51,4.17,15.05,7.95L106.86,75.66
		z"/>
	<path class="st9" d="M96.93,84.15c-4.54-3.55-13.72-7.48-13.72-7.48s3.73-7.33-10.51-21.85c-2.26-2.28-5.52-8.68,0-11.31
		c1.29-1.1,0.84-4.52,2.32-6.37c-1.26-0.62-2.56-0.48-3.79,0.58c-1.98,1.7-1.33,5.6-2.73,6.8c-5.52,2.62-2.25,9.03,0,11.31
		c14.24,14.52,10.65,22.7,10.65,22.7s11.51,4.17,15.05,7.95L96.93,84.15z"/>
	<path class="st12" d="M79.94,42.72c0.74,1.69,1.88,2.89,3.15,3.96C82.07,45.45,81.02,44.13,79.94,42.72z"/>
	<g>
		<path class="st9" d="M326.79,319.62c2.2,2.57,1.9,6.43-0.67,8.63l-17.05,14.6c-2.57,2.2-6.43,1.9-8.63-0.67l-6.05-7.07
			c-2.2-2.57-1.9-6.43,0.67-8.63l17.05-14.6c2.57-2.2,6.43-1.9,8.63,0.67L326.79,319.62z"/>
		<path class="st13" d="M310.63,340.51l-8.69-10.15c-0.98-1.15-2.62-1.37-3.65-0.49c-1.03,0.88-1.07,2.53-0.08,3.68l8.69,10.15
			L310.63,340.51z"/>
		<path class="st13" d="M316,335.92l-8.69-10.15c-0.98-1.15-2.62-1.37-3.65-0.49c-1.03,0.88-1.07,2.53-0.08,3.68l8.69,10.15
			L316,335.92z"/>
		<path class="st13" d="M321.36,331.33l-8.69-10.15c-0.98-1.15-2.62-1.37-3.65-0.49c-1.03,0.88-1.07,2.53-0.08,3.68l8.69,10.15
			L321.36,331.33z"/>
		<path class="st13" d="M326.72,326.74l-8.69-10.15c-0.99-1.15-2.62-1.37-3.65-0.49c-1.03,0.88-1.07,2.53-0.08,3.68l8.69,10.15
			L326.72,326.74z"/>
	</g>
	<g>
		<g>
			<path class="st5" d="M309.1,336.94c0,0-13.4-15.86-33.51-39.66c-20.07-23.82-46.83-55.59-73.59-87.36
				c-26.69-31.82-53.39-63.64-73.41-87.51c-19.98-23.9-33.3-39.83-33.3-39.83s13.4,15.86,33.51,39.65
				c20.07,23.82,46.83,55.59,73.58,87.36c26.69,31.82,53.39,63.64,73.41,87.51C295.78,321.01,309.1,336.94,309.1,336.94z"/>
		</g>
	</g>
	<g>
		<g>
			<path class="st5" d="M311.43,334.95c0,0-13.4-15.86-33.51-39.66c-20.07-23.82-46.83-55.59-73.58-87.36
				c-26.69-31.82-53.39-63.64-73.41-87.51c-19.98-23.9-33.3-39.83-33.3-39.83s13.4,15.86,33.51,39.65
				c20.07,23.82,46.83,55.59,73.58,87.36c26.69,31.82,53.39,63.64,73.41,87.51C298.11,319.02,311.43,334.95,311.43,334.95z"/>
		</g>
	</g>
	<g>
		<g>
			<path class="st5" d="M316.71,330.43c0,0-13.61-15.68-34.03-39.2c-20.38-23.55-47.56-54.96-74.74-86.37
				c-27.11-31.46-54.23-62.92-74.56-86.52c-20.3-23.63-33.83-39.38-33.83-39.38s13.61,15.68,34.03,39.2
				c20.38,23.55,47.56,54.96,74.74,86.37c27.11,31.46,54.23,62.92,74.56,86.52C303.17,314.68,316.71,330.43,316.71,330.43z"/>
		</g>
	</g>
	<g>
		<g>
			<path class="st5" d="M322.79,325.23c0,0-13.8-15.52-34.51-38.79c-20.67-23.31-48.23-54.39-75.79-85.46
				c-27.5-31.13-55-62.27-75.62-85.62c-20.59-23.38-34.31-38.97-34.31-38.97s13.8,15.52,34.51,38.79
				c20.67,23.31,48.23,54.39,75.79,85.46c27.5,31.13,55,62.27,75.62,85.62C309.06,309.64,322.79,325.23,322.79,325.23z"/>
		</g>
	</g>
	<g>
		<g>
			<path class="st5" d="M321.2,326.58c0,0-13.8-15.52-34.51-38.79c-20.67-23.31-48.23-54.39-75.79-85.46
				c-27.5-31.13-55-62.27-75.62-85.62c-20.59-23.38-34.31-38.97-34.31-38.97s13.8,15.52,34.51,38.79
				c20.67,23.31,48.23,54.39,75.79,85.46c27.5,31.13,55,62.27,75.62,85.62C307.48,310.99,321.2,326.58,321.2,326.58z"/>
		</g>
	</g>
	<g>
		<path class="st8" d="M298.38,265.99c1.39,1.62,1.2,4.06-0.42,5.45c-1.62,1.39-4.06,1.2-5.45-0.42c-1.39-1.62-1.2-4.06,0.42-5.45
			C294.55,264.18,296.99,264.37,298.38,265.99z"/>
		<path class="st14" d="M297.47,266.77c0.96,1.12,0.83,2.8-0.29,3.76c-1.12,0.96-2.8,0.83-3.76-0.29c-0.96-1.12-0.83-2.8,0.29-3.76
			C294.83,265.52,296.51,265.65,297.47,266.77z"/>
	</g>
	<g>
		<path class="st8" d="M315.63,268.81c1.39,1.62,1.2,4.06-0.42,5.45c-1.62,1.39-4.06,1.2-5.45-0.42c-1.39-1.62-1.2-4.06,0.42-5.45
			C311.8,267,314.24,267.19,315.63,268.81z"/>
		<path class="st14" d="M314.72,269.59c0.96,1.12,0.83,2.8-0.29,3.76c-1.12,0.96-2.8,0.83-3.76-0.29c-0.96-1.12-0.83-2.8,0.29-3.76
			C312.08,268.34,313.76,268.47,314.72,269.59z"/>
	</g>
	<g>
		<path class="st8" d="M332.03,280.28c1.39,1.62,1.2,4.06-0.42,5.45c-1.62,1.39-4.06,1.2-5.45-0.42c-1.39-1.62-1.2-4.06,0.42-5.45
			C328.2,278.47,330.64,278.66,332.03,280.28z"/>
		<path class="st14" d="M331.12,281.06c0.96,1.12,0.83,2.8-0.29,3.76c-1.12,0.96-2.8,0.83-3.76-0.29c-0.96-1.12-0.83-2.8,0.29-3.76
			C328.48,279.81,330.16,279.94,331.12,281.06z"/>
	</g>
	<path class="st8" d="M81.77,48.39c0.6,0.7,0.52,1.75-0.18,2.35c-0.7,0.6-1.75,0.52-2.35-0.18c-0.6-0.7-0.52-1.75,0.18-2.35
		C80.12,47.61,81.17,47.69,81.77,48.39z"/>
	<path class="st8" d="M88.88,56.7c0.6,0.7,0.52,1.75-0.18,2.35c-0.7,0.6-1.75,0.52-2.35-0.18c-0.6-0.7-0.52-1.75,0.18-2.35
		C87.23,55.92,88.28,56,88.88,56.7z"/>
	<path class="st8" d="M77.29,52.23c0.6,0.7,0.52,1.75-0.18,2.35c-0.7,0.6-1.75,0.52-2.35-0.18c-0.6-0.7-0.52-1.75,0.18-2.35
		C75.64,51.44,76.69,51.53,77.29,52.23z"/>
	<path class="st8" d="M84.4,60.54c0.6,0.7,0.52,1.75-0.18,2.35c-0.7,0.6-1.75,0.52-2.35-0.18c-0.6-0.7-0.52-1.75,0.18-2.35
		C82.75,59.76,83.8,59.84,84.4,60.54z"/>
	<g>
		<path class="st8" d="M71.07,56.22l-5.88,5.04c-0.56,0.48-0.63,1.33-0.15,1.89c0.48,0.56,1.33,0.63,1.89,0.15l5.88-5.04
			L71.07,56.22z"/>
		<path class="st9" d="M71.92,57.21l-6.95,5.81c0.03,0.04,0.04,0.08,0.07,0.12c0.48,0.56,1.33,0.63,1.89,0.15l5.88-5.04L71.92,57.21
			z"/>
		<path class="st8" d="M71.16,61.56c0.48,0.56-0.18,1.92-1.48,3.03l0,0c-1.3,1.11-2.75,1.56-3.22,1l-3.62-4.23
			c-0.48-0.56,0.18-1.92,1.48-3.03l0,0c1.3-1.11,2.75-1.56,3.23-1L71.16,61.56z"/>
		<path class="st9" d="M64.87,57.94c1.13-0.79,2.26-1.09,2.67-0.6l3.62,4.23c0.41,0.48-0.05,1.55-1.01,2.55L64.87,57.94z"/>
	</g>
	<g>
		<path class="st8" d="M78.06,64.39l-5.88,5.04c-0.56,0.48-0.63,1.33-0.15,1.89c0.48,0.56,1.33,0.63,1.89,0.15l5.88-5.04
			L78.06,64.39z"/>
		<path class="st9" d="M78.91,65.38l-6.95,5.81c0.03,0.04,0.04,0.08,0.07,0.12c0.48,0.56,1.33,0.63,1.89,0.15l5.88-5.04L78.91,65.38
			z"/>
		<path class="st8" d="M78.15,69.73c0.48,0.56-0.18,1.92-1.48,3.03l0,0c-1.3,1.11-2.75,1.56-3.22,1l-3.62-4.23
			c-0.48-0.56,0.18-1.92,1.48-3.03l0,0c1.3-1.11,2.75-1.56,3.23-1L78.15,69.73z"/>
		<path class="st9" d="M71.86,66.11c1.13-0.79,2.26-1.09,2.67-0.6l3.62,4.23c0.41,0.48-0.05,1.55-1.01,2.55L71.86,66.11z"/>
	</g>
	<path class="st9" d="M221.91,241.22c0.38,0.44,0.33,1.11-0.12,1.49c-0.44,0.38-1.11,0.33-1.49-0.12c-0.38-0.44-0.33-1.11,0.11-1.49
		C220.87,240.72,221.54,240.78,221.91,241.22z"/>
	<path class="st9" d="M233.86,274.58c0.38,0.44,0.33,1.11-0.12,1.49c-0.44,0.38-1.11,0.33-1.49-0.12c-0.38-0.44-0.33-1.11,0.11-1.49
		C232.82,274.08,233.49,274.13,233.86,274.58z"/>
	<path class="st9" d="M253.42,309.73c0.38,0.44,0.33,1.11-0.12,1.49c-0.44,0.38-1.11,0.33-1.49-0.12c-0.38-0.44-0.33-1.11,0.12-1.49
		C252.38,309.23,253.04,309.29,253.42,309.73z"/>
	<path class="st9" d="M281.99,323.11c0.38,0.44,0.33,1.11-0.12,1.49c-0.44,0.38-1.11,0.33-1.49-0.12c-0.38-0.44-0.33-1.11,0.12-1.49
		C280.94,322.62,281.61,322.67,281.99,323.11z"/>
	<path class="st9" d="M316.03,296.75c0.38,0.44,0.33,1.11-0.12,1.49c-0.44,0.38-1.11,0.33-1.49-0.12c-0.38-0.44-0.33-1.11,0.12-1.49
		C314.98,296.26,315.65,296.31,316.03,296.75z"/>
	<path class="st9" d="M342.62,291.94c0.38,0.44,0.33,1.11-0.12,1.49c-0.44,0.38-1.11,0.33-1.49-0.12c-0.38-0.44-0.33-1.11,0.11-1.49
		C341.57,291.44,342.24,291.5,342.62,291.94z"/>
	<path class="st9" d="M343.05,275.01c0.38,0.44,0.33,1.11-0.12,1.49c-0.44,0.38-1.11,0.33-1.49-0.12c-0.38-0.44-0.33-1.11,0.12-1.49
		C342.01,274.52,342.67,274.57,343.05,275.01z"/>
	<path class="st9" d="M296.54,252.46c0.38,0.44,0.33,1.11-0.11,1.49c-0.44,0.38-1.11,0.33-1.49-0.12c-0.38-0.44-0.33-1.11,0.12-1.49
		C295.5,251.96,296.16,252.01,296.54,252.46z"/>
	<path class="st9" d="M280.42,225.93c0.38,0.44,0.33,1.11-0.12,1.49c-0.44,0.38-1.11,0.33-1.49-0.12c-0.38-0.44-0.33-1.11,0.11-1.49
		C279.37,225.43,280.04,225.49,280.42,225.93z"/>
	<path class="st9" d="M269.49,201.89c0.38,0.44,0.33,1.11-0.11,1.49c-0.44,0.38-1.11,0.33-1.49-0.12c-0.38-0.44-0.33-1.11,0.12-1.49
		C268.45,201.39,269.11,201.44,269.49,201.89z"/>
	<path class="st9" d="M250.25,235.76c0.38,0.44,0.33,1.11-0.12,1.49c-0.44,0.38-1.11,0.33-1.49-0.12c-0.38-0.44-0.33-1.11,0.12-1.49
		C249.2,235.27,249.87,235.32,250.25,235.76z"/>
</g>
</svg>
