<?xml version="1.0" encoding="utf-8"?>
<!-- Generator: Adobe Illustrator 23.0.4, SVG Export Plug-In . SVG Version: 6.00 Build 0)  -->
<svg version="1.1" id="Layer_1" xmlns="http://www.w3.org/2000/svg" xmlns:xlink="http://www.w3.org/1999/xlink" x="0px" y="0px"
	 viewBox="0 0 400 400" style="enable-background:new 0 0 400 400;" xml:space="preserve">
<style type="text/css">
	.st0{fill:#BABABA;}
	.st1{fill:#52340E;}
	.st2{fill:#4F4F4F;}
	.st3{fill:#FFAD42;}
	.st4{opacity:0.15;}
	.st5{fill:#7A4E15;}
	.st6{fill:#AB6D1E;}
	.st7{fill:#FFE0B8;}
	.st8{fill:#8F5B19;}
	.st9{fill:#362209;}
	.st10{fill:#5C3E33;}
	.st11{fill:#FFFFFF;}
	.st12{fill:#BF7A21;}
</style>
<g>
	
		<rect x="58.15" y="286.94" transform="matrix(0.7071 -0.7071 0.7071 0.7071 -185.5459 128.8359)" class="st0" width="9.19" height="2.91"/>
	<path class="st1" d="M97.74,310.76l3.27-3.27l-9.29-9.29l-3.27,3.27c-1.89,1.89-1.89,4.94,0,6.83l2.46,2.46
		C92.79,312.65,95.85,312.65,97.74,310.76z"/>
	<path class="st2" d="M284.6,71.18c1.35-3.4,0.33-7.46-2.89-9.75c-3.72-2.64-8.75-1.85-11.24,1.76c-2.49,3.61-1.49,8.68,2.23,11.32
		c3.22,2.29,7.33,1.87,10.02-0.59l7.33,5.2l1.88-2.74L284.6,71.18z"/>
	<path class="st2" d="M311.08,36c1.35-3.4,0.33-7.46-2.89-9.75c-3.72-2.64-8.76-1.85-11.24,1.76c-2.49,3.61-1.49,8.68,2.23,11.32
		c3.22,2.28,7.33,1.87,10.02-0.59l7.33,5.2l1.88-2.74L311.08,36z"/>
	<path class="st2" d="M338.31,116.89c-2.35-3.18-6.42-4.12-9.8-2.7l-5.34-7.22l-2.7,1.94l5.33,7.23c-2.41,2.73-2.75,6.85-0.4,10.03
		c2.71,3.67,7.8,4.57,11.36,2.01C340.33,125.61,341.02,120.56,338.31,116.89z"/>
	<path class="st2" d="M373.35,90.14c-2.35-3.18-6.42-4.12-9.8-2.7l-5.34-7.22l-2.7,1.94l5.34,7.22c-2.41,2.73-2.75,6.85-0.4,10.03
		c2.71,3.67,7.8,4.57,11.36,2.01C375.36,98.86,376.06,93.81,373.35,90.14z"/>
	<path class="st3" d="M361.92,57.69l-8.02-12.72l-12.72-8.02c-8.1-5.04-18.26-3.46-23.63,3.68l-39.78,52.98l27.48,27.48l52.98-39.78
		C365.38,75.95,366.97,65.78,361.92,57.69z"/>
	<path class="st3" d="M217.57,304.21l18.84-25.82c0.92-1.26,0.07-3.09-1.58-3.53c-8.46-2.24-9.6-5.22-9.6-5.22
		c-3.72-3.72-4.31-9.31-1.36-13.13l27.37-35.45c3.8-4.92,8.07-8.52,12.78-3.81l1.08,1.08c0.46,0.46,1.18,0.54,1.68,0.19l25.57-17.74
		c34.89-24.2,33.34-63.11,1.83-94.61l-1.15-1.15c-31.51-31.51-70.41-33.06-94.61,1.83l-17.74,25.58c-0.35,0.5-0.27,1.21,0.19,1.67
		l1.36,1.36c4.71,4.71,1.11,8.97-3.81,12.78l-35.46,27.37c-3.82,2.95-9.41,2.36-13.13-1.36c0,0-2.92-1.78-5.28-9.62
		c-0.52-1.74-2.46-2.59-3.81-1.62l-25.76,18.64c-30.11,21.66-37.7,83,0.24,120.94l1.39,1.39
		C134.56,341.91,195.91,334.32,217.57,304.21z"/>
	
		<rect x="174.1" y="191.17" transform="matrix(0.7071 -0.7071 0.7071 0.7071 -69.1021 228.1253)" class="st4" width="133.43" height="12.62"/>
	
		<rect x="123.2" y="229.9" transform="matrix(0.7071 -0.7071 0.7071 0.7071 -134.3394 178.2035)" class="st5" width="49.49" height="42.72"/>
	
		<rect x="138.45" y="147.24" transform="matrix(0.7071 -0.7071 0.7071 0.7071 -51.6758 212.4438)" class="st6" width="184.32" height="42.72"/>
	<polygon class="st7" points="198.93,236.25 196.04,233.37 193.77,235.64 196.66,238.52 194.17,241.01 197.7,244.54 204.99,237.24 
		201.46,233.72 	"/>
	<polygon class="st7" points="207.1,228.08 204.21,225.2 201.94,227.47 204.82,230.35 202.34,232.84 205.86,236.37 213.16,229.08 
		209.63,225.55 	"/>
	<polygon class="st7" points="215.26,219.91 212.38,217.03 210.11,219.3 212.99,222.19 210.51,224.67 214.03,228.2 221.32,220.91 
		217.8,217.38 	"/>
	<polygon class="st7" points="223.5,211.68 220.62,208.79 218.35,211.07 221.23,213.95 218.74,216.43 222.27,219.96 229.56,212.67 
		226.03,209.14 	"/>
	<polygon class="st7" points="231.88,203.3 229,200.41 226.72,202.69 229.61,205.57 227.12,208.06 230.65,211.58 237.94,204.29 
		234.41,200.76 	"/>
	<polygon class="st7" points="240.26,194.92 237.38,192.03 235.1,194.31 237.99,197.19 235.5,199.68 239.03,203.2 246.32,195.91 
		242.79,192.39 	"/>
	<polygon class="st7" points="248.43,186.75 245.54,183.87 243.27,186.14 246.15,189.02 243.67,191.51 247.2,195.04 254.49,187.74 
		250.96,184.22 	"/>
	<polygon class="st7" points="256.6,178.58 253.71,175.7 251.44,177.97 254.32,180.86 251.84,183.34 255.36,186.87 262.66,179.58 
		259.13,176.05 	"/>
	<polygon class="st7" points="264.83,170.34 261.95,167.46 259.68,169.73 262.56,172.62 260.07,175.1 263.6,178.63 270.89,171.34 
		267.37,167.81 	"/>
	<polygon class="st7" points="273.21,161.97 270.33,159.08 268.06,161.35 270.94,164.24 268.45,166.72 271.98,170.25 279.27,162.96 
		275.75,159.43 	"/>
	<polygon class="st7" points="281.66,153.52 278.78,150.63 276.51,152.91 279.39,155.79 276.9,158.27 280.43,161.8 287.72,154.51 
		284.19,150.98 	"/>
	<path class="st8" d="M90.83,293.99c-2.02,2.92-1.67,6.86,0.84,9.37l4.17,4.17c2.51,2.51,6.45,2.86,9.37,0.84l36.84-25.54
		l-25.68-25.68L90.83,293.99z"/>
	
		<rect x="128.96" y="251.22" transform="matrix(0.7071 -0.7071 0.7071 0.7071 -152.4529 170.7006)" class="st1" width="1.74" height="36.32"/>
	
		<rect x="82.88" y="310.25" transform="matrix(0.7071 -0.7071 0.7071 0.7071 -195.4161 152.8924)" class="st9" width="7.97" height="4.19"/>
	
		<rect x="83.53" y="311.84" transform="matrix(0.7071 -0.7071 0.7071 0.7071 -195.7001 153.5706)" class="st4" width="7.97" height="2.33"/>
	<path class="st10" d="M39.76,318.26l20.28-20.28c1.89-1.89,1.89-4.94,0-6.83l-0.07-0.07c-1.89-1.89-4.94-1.89-6.83,0l-20.28,20.28
		c-1.89,1.89-1.89,4.95,0,6.83l0.07,0.07C34.81,320.15,37.87,320.15,39.76,318.26z"/>
	<path class="st4" d="M32.89,318.23l0.03,0.03c1.89,1.89,4.94,1.89,6.83,0l20.28-20.28c1.53-1.53,1.75-3.8,0.8-5.62l6.19-6.19
		l1.16-1.16l-1.04-1.04L32.89,318.23z"/>
	
		<rect x="65.75" y="283.11" transform="matrix(0.707 -0.7072 0.7072 0.707 -181.7435 130.4642)" class="st1" width="1.64" height="2.91"/>
	<path class="st10" d="M156.57,328.7l-0.76,3.89c-0.24,1.21-1.41,2-2.62,1.77l-11.34-2.22c-1.21-0.24-2-1.41-1.77-2.62l0.76-3.89
		c0.47-2.42,2.82-4,5.24-3.53l6.96,1.36C155.46,323.93,157.04,326.28,156.57,328.7z"/>
	<path class="st10" d="M70.12,242.25l-3.89,0.76c-1.21,0.24-2,1.41-1.77,2.62l2.22,11.34c0.24,1.21,1.41,2,2.62,1.77l3.89-0.76
		c2.42-0.47,4-2.82,3.53-5.24l-1.36-6.96C74.88,243.35,72.54,241.77,70.12,242.25z"/>
	<path class="st11" d="M147.06,327.15c-0.15,0.15-0.36,0.21-0.58,0.15c-0.32-0.08-0.51-0.41-0.42-0.73l7.29-27.12l173.59-187.2
		c0.01-0.01,0.01-0.01,0.02-0.02c0.23-0.23,0.59-0.24,0.83-0.02c0.24,0.23,0.26,0.6,0.03,0.85L154.33,300.15l-7.12,26.73
		C147.18,326.98,147.13,327.07,147.06,327.15z"/>
	<path class="st11" d="M151.62,327.85c-0.17,0.17-0.44,0.23-0.67,0.12c-0.3-0.14-0.43-0.49-0.3-0.79l11.21-24.5L361.51,84.87
		c0.21-0.22,0.6-0.26,0.84-0.04c0.24,0.22,0.26,0.6,0.04,0.85L162.81,303.42l-11.07,24.26
		C151.71,327.75,151.67,327.81,151.62,327.85z"/>
	<path class="st11" d="M286.97,72.25c-0.01,0-0.01,0.01-0.02,0.02L99.51,245.99l-26.87,7.15c-0.32,0.08-0.65-0.11-0.73-0.42
		c-0.09-0.32,0.11-0.64,0.42-0.73l26.73-7.11L286.14,71.38c0.24-0.22,0.62-0.21,0.84,0.03C287.21,71.65,287.2,72.02,286.97,72.25z"
		/>
	<path class="st11" d="M313.9,38.12c-0.01,0.01-0.01,0.01-0.02,0.02L96.37,237.44l-24.35,11.1c-0.3,0.14-0.65,0-0.79-0.3
		c-0.14-0.3-0.01-0.65,0.3-0.79l24.26-11.06L313.07,37.26c0.24-0.22,0.62-0.21,0.85,0.04C314.14,37.53,314.13,37.9,313.9,38.12z"/>
	
		<rect x="128.47" y="196.45" transform="matrix(0.7071 -0.7071 0.7071 0.7071 -132.8959 178.8012)" class="st10" width="41.82" height="106.75"/>
	
		<rect x="157.3" y="291.09" transform="matrix(0.4179 -0.9085 0.9085 0.4179 -181.8559 321.2177)" class="st12" width="4.89" height="22.86"/>
	
		<rect x="94.58" y="228.37" transform="matrix(0.9085 -0.418 0.418 0.9085 -91.3471 62.5018)" class="st12" width="4.89" height="22.86"/>
	<path class="st4" d="M89.51,309.37l1.4,1.4c1.89,1.89,4.94,1.89,6.83,0l1.43-1.43c1.16,0.31,2.35,0.41,3.53,0.13
		c11.44,9.48,24.5,15.37,37.74,18.19l-0.36,1.86c-0.24,1.21,0.55,2.39,1.77,2.62l11.34,2.22c1.21,0.24,2.39-0.55,2.62-1.77
		l0.58-2.99c25.39,0.87,49.28-8.85,61.18-25.39l18.84-25.82c0.92-1.26,0.07-3.09-1.58-3.53c-8.46-2.24-9.6-5.22-9.6-5.22
		c-3.72-3.72-4.31-9.31-1.36-13.13l27.37-35.45c3.8-4.92,8.07-8.52,12.78-3.81l1.08,1.08c0.46,0.46,1.18,0.54,1.68,0.19l25.57-17.74
		c23.87-16.56,30.66-40,22.5-63.24l10.52-11.47c0.02,0.03,0.02,0.06,0.04,0.08c2.71,3.67,7.8,4.57,11.36,2.01
		c3.56-2.56,4.25-7.61,1.54-11.27c-0.7-0.95-1.58-1.63-2.53-2.18l24.24-26.45l0.82,1.11c-2.41,2.73-2.75,6.85-0.4,10.03
		c2.71,3.67,7.8,4.57,11.36,2.01c3.56-2.56,4.25-7.6,1.54-11.27c-2.35-3.18-6.42-4.12-9.8-2.7l-1.23-1.67l0.08-0.09
		c0.22-0.24,0.21-0.62-0.04-0.85c-0.21-0.19-0.52-0.16-0.74-0.01l-2.91-3.94c6.71-5.45,8.14-15.3,3.22-23.2l-8.02-12.72
		L89.51,309.37z M325.81,116.12c-2.11,2.4-2.51,5.84-1.02,8.8l-10.42,11.37c-0.75-2-1.59-3.99-2.56-5.98l13.62-14.69L325.81,116.12z
		 M324.72,114.64l-13.5,14.56c-1.19-2.34-2.54-4.66-4.03-6.97l3.69-3.69l-0.95-0.95l10.92-8.2L324.72,114.64z M359.3,87.28
		l-24.67,26.91c-1.97-0.76-4.15-0.84-6.12-0.01l-0.77-1.04l0.08-0.08c0.22-0.24,0.21-0.62-0.03-0.85c-0.21-0.2-0.52-0.18-0.74-0.02
		l-3.54-4.79l32.59-24.47L359.3,87.28z"/>
	<path class="st1" d="M60.95,283.27l-3.06,3.06l32.23,32.23c0.75,0.75,1.59,1.12,1.88,0.83l2.01-2.01c0.29-0.29-0.08-1.13-0.83-1.88
		L60.95,283.27z"/>
	<path class="st4" d="M59.42,284.8l33.59,33.59l1.01-1.01c0.29-0.29-0.08-1.13-0.83-1.88l-32.23-32.23L59.42,284.8z"/>
</g>
</svg>
